<svg fill="none" xmlns="http://www.w3.org/2000/svg" viewBox="0 0 20 14"><path fill-rule="evenodd" clip-rule="evenodd" d="M0 14h20V0H0v14z" fill="#009B3A"/><path fill-rule="evenodd" clip-rule="evenodd" d="M2.676 7.128a.3.3 0 010-.506l7.029-4.473a.3.3 0 01.322 0l7.028 4.473a.3.3 0 010 .506L10.027 11.6a.3.3 0 01-.322 0l-7.03-4.473z" fill="#FEDF00"/><path fill-rule="evenodd" clip-rule="evenodd" d="M9.862 10.317a3.403 3.403 0 100-6.805 3.403 3.403 0 000 6.805z" fill="#002776"/><mask id="a" maskUnits="userSpaceOnUse" x="6" y="3" width="8" height="8"><path fill-rule="evenodd" clip-rule="evenodd" d="M9.862 10.317a3.403 3.403 0 100-6.805 3.403 3.403 0 000 6.805z" fill="#fff"/></mask><g mask="url(#a)"><path fill-rule="evenodd" clip-rule="evenodd" d="M6.467 6.55c.002 0 .061-.029.232-.039.197-.012.463.006.791.054.656.096 1.455.296 2.262.51.753.202 1.53.516 2.169.842.318.162.593.324.808.47.225.153.346.265.392.32l.42.519 1.035-.84-.42-.517c-.168-.208-.417-.407-.677-.584a8.96 8.96 0 00-.951-.556 12.752 12.752 0 00-2.433-.942c-.803-.214-1.67-.433-2.412-.542a5.348 5.348 0 00-1.064-.065c-.307.019-.686.087-.983.327l-.518.42.84 1.036.509-.413z" fill="#fff"/></g><path d="M1 .25h18v-.5H1v.5zM19.75 1v12h.5V1h-.5zM19 13.75H1v.5h18v-.5zM.25 13V1h-.5v12h.5zm.75.75A.75.75 0 01.25 13h-.5c0 .69.56 1.25 1.25 1.25v-.5zM19.75 13a.75.75 0 01-.75.75v.5c.69 0 1.25-.56 1.25-1.25h-.5zM19 .25a.75.75 0 01.75.75h.5c0-.69-.56-1.25-1.25-1.25v.5zM1-.25C.31-.25-.25.31-.25 1h.5A.75.75 0 011 .25v-.5z" fill="#94949E"/></svg>