<?xml version="1.0" encoding="UTF-8"?><svg xmlns="http://www.w3.org/2000/svg" class="interstitial" enable-background="new 0 0 587 101" fill="none" height="54px" preserveAspectRatio="xMidYMid meet" viewBox="0 0 587 101" width="310px"><g clip-path="url(#clip0_6505_195135)"><path d="M64.5181 90.6972H17.2113C8.0915 90.6972 0.679688 83.2853 0.679688 74.1656V26.8587C0.679688 17.739 8.0915 10.3271 17.2113 10.3271H64.5181C73.6379 10.3271 81.0497 17.739 81.0497 26.8587V74.1656C81.0497 83.2853 73.6379 90.6972 64.5181 90.6972Z" fill="#EF3346"/><path d="M29.3173 45.914C29.3173 45.254 28.8533 44.79 28.1933 44.79H20.3935C19.7335 44.79 19.2695 45.254 19.2695 45.914V53.7138C19.2695 54.3738 19.7335 54.8378 20.3935 54.8378H28.1933C28.8533 54.8378 29.3173 54.3738 29.3173 53.7138V45.914Z" fill="#191E3B"/><path d="M37.663 62.0576H45.4628C46.0828 62.0576 46.5868 62.5616 46.5868 63.1816V70.9814C46.5868 71.6014 46.0828 72.1054 45.4628 72.1054H37.663C37.043 72.1054 36.5391 71.6014 36.5391 70.9814V63.1816C36.5391 62.5616 37.043 62.0576 37.663 62.0576Z" fill="#191E3B"/><path d="M37.663 44.7861H45.4628C46.0828 44.7861 46.5868 45.2901 46.5868 45.9101V53.7099C46.5868 54.3299 46.0828 54.8339 45.4628 54.8339H37.663C37.043 54.8339 36.5391 54.3299 36.5391 53.7099V45.9101C36.5391 45.2901 37.043 44.7861 37.663 44.7861Z" fill="#FDDB32"/><path d="M66.5737 29.9227C66.5737 27.0908 64.2858 24.7988 61.4498 24.7988H23.0308C22.2548 24.7988 21.7908 25.0708 21.3228 25.5748L13.599 33.2986C13.015 33.8826 13.403 34.7346 14.259 34.7346H56.674V77.1495C56.674 78.0015 57.5259 78.3895 58.1099 77.8095L65.8337 70.0857C66.2977 69.6217 66.6097 69.1537 66.6097 68.3777V29.9227H66.5697H66.5737Z" fill="#191E3B"/><path d="M271.618 54.746C272.754 46.7942 276.914 41.5903 285.21 41.5903C293.506 41.5903 298.174 46.4502 298.845 54.746H271.622H271.618ZM285.398 33.7705C272.146 33.7705 261.566 43.3063 261.566 59.1299C261.566 74.9535 270.91 85.2492 286.638 85.2492C295.694 85.2492 303.225 81.2453 307.897 75.7135C308.185 75.4255 308.281 75.1415 308.281 74.8575C308.281 74.5735 308.185 74.2855 307.897 74.0015L303.509 69.7096C303.221 69.4216 302.937 69.3256 302.653 69.3256C302.369 69.3256 302.081 69.5176 301.797 69.8056C298.178 73.7135 293.502 77.0534 286.734 77.0534C276.866 77.0534 272.114 70.9736 271.39 62.1818H307.997C308.665 62.1818 309.141 61.7018 309.141 61.0378V59.1339C309.133 44.6462 300.365 33.7745 285.398 33.7745" fill="#191E3B"/><path d="M158.887 17.0869H150.975C150.307 17.0869 149.831 17.5669 149.831 18.2309V44.9262H117.704V18.2309C117.704 17.5629 117.228 17.0869 116.56 17.0869H108.648C107.98 17.0869 107.504 17.5669 107.504 18.2309V82.6813C107.504 83.3493 107.98 83.8253 108.648 83.8253H116.56C117.228 83.8253 117.704 83.3453 117.704 82.6813V53.89H149.831V82.6813C149.831 83.3493 150.307 83.8253 150.975 83.8253H158.887C159.555 83.8253 160.031 83.3453 160.031 82.6813V18.2269C160.031 17.5589 159.551 17.0869 158.887 17.0869Z" fill="#191E3B"/><path d="M194.924 76.8654C184.344 76.8654 178.716 68.9536 178.716 59.5139C178.716 50.0741 184.34 42.1623 194.924 42.1623C205.508 42.1623 211.132 50.0741 211.132 59.5139C211.132 68.9536 205.504 76.8654 194.924 76.8654ZM194.924 33.7705C180.72 33.7705 168.805 44.2582 168.805 59.5099C168.805 74.7615 180.72 85.2532 194.924 85.2532C209.128 85.2532 221.043 74.7655 221.043 59.5099C221.043 44.2542 209.128 33.7705 194.924 33.7705Z" fill="#191E3B"/><path d="M486.807 76.8654C476.227 76.8654 470.599 68.9536 470.599 59.5139C470.599 50.0741 476.223 42.1623 486.807 42.1623C497.391 42.1623 503.014 50.0741 503.014 59.5139C503.014 68.9536 497.387 76.8654 486.807 76.8654ZM486.807 33.7705C472.603 33.7705 460.688 44.2582 460.688 59.5099C460.688 74.7615 472.603 85.2532 486.807 85.2532C501.01 85.2532 512.926 74.7655 512.926 59.5099C512.926 44.2542 501.01 33.7705 486.807 33.7705Z" fill="#191E3B"/><path d="M255.744 35.2944H243.352V19.1708C243.352 18.3148 242.496 17.9308 241.92 18.5028L234.192 26.2266C233.712 26.7066 233.432 27.1786 233.432 27.9426V35.2944H224.953C224.285 35.2944 223.809 35.7744 223.809 36.4384V41.7782C223.809 42.4462 224.285 42.9222 224.953 42.9222H233.44V68.9496C233.44 78.0053 237.732 83.8212 246.788 83.8212H255.748C256.412 83.8212 256.892 83.3452 256.892 82.6772V76.5774C256.892 75.9094 256.416 75.4334 255.748 75.4334H249.456C244.972 75.4334 243.356 73.7175 243.356 69.2376V42.9262H255.752C256.416 42.9262 256.896 42.4502 256.896 41.7822V36.4424C256.896 35.7744 256.416 35.3024 255.748 35.3024" fill="#191E3B"/><path d="M396.139 74.1377H388.491C387.731 74.1377 387.215 74.6417 387.215 75.4137V82.5495C387.215 83.3095 387.731 83.8255 388.491 83.8255H396.139C396.899 83.8255 397.415 83.3215 397.415 82.5495V75.4137C397.415 74.6417 396.911 74.1377 396.139 74.1377Z" fill="#191E3B"/><path d="M358.043 54.7421C350.228 53.0261 346.412 51.6902 346.412 47.6863C346.412 43.6824 349.844 41.5864 355.948 41.5864C361.383 41.5864 365.671 44.0663 368.439 47.9742C368.823 48.5462 369.487 48.6422 370.063 48.2622L375.211 44.9223C375.783 44.5383 375.971 43.9703 375.591 43.3024C371.395 36.9145 364.723 33.7666 356.048 33.7666C346.32 33.7666 337.648 38.5305 337.648 48.2582C337.648 57.986 345.752 61.1259 356.428 63.4179C363.955 65.0378 367.295 66.2778 367.295 70.7617C367.295 75.2456 363.387 77.4375 356.808 77.4375C350.228 77.4375 345.556 74.7696 342.508 70.2857C342.124 69.6177 341.46 69.4297 340.788 69.9017L335.64 73.5256C335.068 73.9096 334.972 74.4776 335.256 75.0496C339.164 81.6294 346.412 85.3453 356.708 85.3453C369.575 85.3453 377.015 78.9575 377.015 70.3777C377.015 60.3619 368.723 57.118 358.047 54.7381" fill="#191E3B"/><path d="M451.451 68.8058L447.059 66.7498L447.023 66.7339L446.987 66.7219C446.707 66.6179 446.431 66.5659 446.163 66.5659C445.699 66.5659 444.835 66.7339 444.275 67.8538C441.383 73.8457 436.995 76.6296 430.467 76.6296C421.684 76.6296 416.008 69.9578 416.008 59.634C416.008 49.3103 421.548 42.3545 430.467 42.3545C436.943 42.3545 440.959 44.8064 443.891 50.5463C444.279 51.4222 445.003 51.9462 445.835 51.9462C446.107 51.9462 446.383 51.8862 446.651 51.7742L446.671 51.7662L446.691 51.7582L451.191 49.6023C452.127 49.1903 452.891 48.1823 452.251 46.5783C450.907 43.1864 448.295 40.1025 444.899 37.8866C440.931 35.2986 435.943 33.9307 430.475 33.9307C423.672 33.9307 417.46 36.5186 412.976 41.2145C408.476 45.9304 405.996 52.5062 405.996 59.73C405.996 74.4057 416.292 85.0574 430.475 85.0574C446.135 85.0574 451.391 74.7977 452.631 71.6537C453.087 70.4418 452.611 69.3058 451.455 68.8138L451.451 68.8058Z" fill="#191E3B"/><path d="M581.651 38.7424C578.679 35.7065 574.307 34.1025 569.003 34.1025C562.303 34.1025 557.503 37.6225 554.891 41.3584C552.716 37.6065 548.364 34.1025 541.728 34.1025C536.956 34.1025 533.216 35.6785 530.372 38.8984V37.6105C530.372 36.4145 529.472 35.5145 528.276 35.5145H522.916C521.72 35.5145 520.82 36.4145 520.82 37.6105V81.7214C520.82 82.9173 521.72 83.8173 522.916 83.8173H528.464C529.66 83.8173 530.56 82.9173 530.56 81.7214V53.7901C530.56 50.3461 531.448 42.3423 539.656 42.3423C545.716 42.3423 548.66 45.5343 548.66 52.0981V81.7254C548.66 82.9213 549.56 83.8213 550.756 83.8213H556.211C557.407 83.8213 558.307 82.9213 558.307 81.7254V53.794C558.307 49.5182 559.527 42.3463 567.687 42.3463C573.635 42.3463 576.407 45.4463 576.407 52.1021V81.7294C576.407 82.9253 577.307 83.8253 578.503 83.8253H583.959C585.155 83.8253 586.055 82.9253 586.055 81.7294V50.9741C586.055 45.9222 584.531 41.6944 581.651 38.7544V38.7424Z" fill="#191E3B"/><path d="M326.577 17.0752C327.245 17.0752 327.721 17.5512 327.721 18.2192V26.039C327.721 26.707 327.245 27.1829 326.577 27.1829H318.757C318.089 27.1829 317.613 26.707 317.613 26.039V18.2192C317.613 17.5512 318.089 17.0752 318.757 17.0752H326.577Z" fill="#191E3B"/><path d="M326.483 35.2866C327.151 35.2866 327.627 35.7626 327.627 36.4306V82.6694C327.627 83.3374 327.151 83.8134 326.483 83.8134H318.855C318.187 83.8134 317.711 83.3374 317.711 82.6694V36.4306C317.711 35.7626 318.187 35.2866 318.855 35.2866H326.483Z" fill="#191E3B"/></g><defs><clipPath id="clip0_6505_195135"><rect fill="white" height="81" transform="translate(0.679688 10.3271)" width="586"/></clipPath></defs></svg>